# xmcd CD database file
#
# Track frame offsets:
#	150
#	12468
#	25097
#	35294
#	47631
#	59514
#	69351
#	80704
#	88832
#	96364
#	107273
#	119260
#	128576
#	139510
#	150477
#
# Disc length: 2154 seconds
#
# Revision: 0
# Processed by: cddbd v1.4PL0 Copyright (c) Steve Scherf et al.
# Submitted via: CDex 1.50
#
DISCID=ba08680f
DTITLE=Johnny Cash - Johnny Cash
DYEAR=1900
DGENRE=Country
TTITLE0=I Walk The Line
TTITLE1=Folsom Prison Blues
TTITLE2=There You Go
TTITLE3=Next In LIne
TTITLE4=Home Of The Blues
TTITLE5=Ballad Of A Teenage Queen
TTITLE6=Big River
TTITLE7=Guess Things Happen That Way
TTITLE8=Come In Stranger
TTITLE9=The Ways Of A Woman In Love
TTITLE10=You're The Nearest Thing To Heaven
TTITLE11=Luther Played The Boogie
TTITLE12=Cry Cry Cry
TTITLE13=I Love You Because
TTITLE14=Oh, Lonesome Me
EXTD=
EXTT0=
EXTT1=
EXTT2=
EXTT3=
EXTT4=
EXTT5=
EXTT6=
EXTT7=
EXTT8=
EXTT9=
EXTT10=
EXTT11=
EXTT12=
EXTT13=
EXTT14=
PLAYORDER=
